<svg width="330" height="370" viewBox="0 0 330 370" fill="none" xmlns="http://www.w3.org/2000/svg">
<path d="M250.339 64.7801C250.189 64.6901 250.059 64.6101 249.919 64.5201C235.529 55.8001 219.699 49.2201 202.869 45.2301L203.929 40.7801L207.809 24.5401L213.629 0.120117H115.759L121.579 24.5401L125.459 40.7801L126.519 45.2301C109.699 49.2301 93.8693 55.8001 79.4893 64.5201C79.3393 64.6101 79.2093 64.7001 79.0593 64.7901C71.3593 69.4901 64.0793 74.8001 57.2793 80.6601L113.399 136.78C122.619 129.87 133.269 124.78 144.839 122.04L159.289 182.67L161.379 191.44L164.699 205.36L168.019 191.41L170.089 182.73L184.569 122.04C196.149 124.79 206.809 129.89 216.029 136.8L233.099 119.73L250.359 102.47L272.149 80.6801C265.329 74.8101 258.039 69.4901 250.339 64.7801ZM163.959 119.73C164.199 119.72 164.449 119.72 164.689 119.72C164.929 119.72 165.179 119.72 165.419 119.73H163.959Z" fill="url(#paint0_linear_1_922)"/>
<path d="M305.55 120.15C305.46 120.01 305.38 119.87 305.29 119.73C300.59 112.03 295.27 104.74 289.4 97.9404L267.61 119.73L250.35 136.99L233.28 154.06C243.99 168.36 250.35 186.13 250.35 205.37C250.35 224.61 244 242.38 233.28 256.68C230.83 259.95 228.14 263.05 225.26 265.93C222.38 268.81 219.29 271.5 216.02 273.95C206.8 280.86 196.14 285.95 184.56 288.69C178.19 290.21 171.53 291.01 164.7 291.01C157.85 291.01 151.2 290.21 144.82 288.69C133.25 285.94 122.6 280.85 113.39 273.95C110.12 271.5 107.03 268.82 104.15 265.93C101.27 263.05 98.5796 259.96 96.1296 256.69C85.4096 242.39 79.0596 224.62 79.0596 205.37C79.0596 186.13 85.4096 168.36 96.1296 154.05L39.9996 97.9404C34.1296 104.74 28.8096 112.03 24.1096 119.73C24.0196 119.87 23.9396 120.01 23.8496 120.15C8.77961 145.01 0.0996094 174.18 0.0996094 205.37C0.0996094 236.56 8.77961 265.73 23.8496 290.6C23.9396 290.74 24.0196 290.88 24.1096 291.02C28.8096 298.72 34.1296 306.01 39.9996 312.81C42.6596 315.89 45.4296 318.88 48.3096 321.76C51.1896 324.64 54.1796 327.41 57.2596 330.07C64.0596 335.94 71.3396 341.26 79.0396 345.95C79.1896 346.04 79.3196 346.12 79.4696 346.22C93.8496 354.94 109.67 361.52 126.49 365.51C138.75 368.42 151.54 369.96 164.69 369.96C177.84 369.96 190.62 368.42 202.87 365.51C219.7 361.51 235.53 354.94 249.92 346.22C250.06 346.13 250.2 346.05 250.34 345.96C258.04 341.26 265.33 335.94 272.13 330.07C275.21 327.41 278.2 324.64 281.08 321.76C283.96 318.88 286.73 315.89 289.4 312.81C295.26 306.01 300.58 298.72 305.28 291.02C305.37 290.87 305.45 290.74 305.54 290.6C320.61 265.74 329.29 236.56 329.29 205.37C329.29 174.18 320.62 145.01 305.55 120.15Z" fill="url(#paint1_linear_1_922)"/>
<defs>
<linearGradient id="paint0_linear_1_922" x1="57.2677" y1="102.74" x2="272.13" y2="102.74" gradientUnits="userSpaceOnUse">
<stop stop-color="#7D0BFE"/>
<stop offset="1" stop-color="#B072D2"/>
</linearGradient>
<linearGradient id="paint1_linear_1_922" x1="0.105809" y1="233.954" x2="329.293" y2="233.954" gradientUnits="userSpaceOnUse">
<stop stop-color="#7D0BFE"/>
<stop offset="1" stop-color="#B072D2"/>
</linearGradient>
</defs>
</svg>
