<svg width="370" height="640" viewBox="0 0 370 640" fill="none" xmlns="http://www.w3.org/2000/svg">
<rect width="10" height="10" fill="#727272"/>
<rect y="30" width="10" height="10" fill="#727272"/>
<rect y="60" width="10" height="10" fill="#727272"/>
<rect y="90" width="10" height="10" fill="#727272"/>
<rect y="120" width="10" height="10" fill="#727272"/>
<rect y="150" width="10" height="10" fill="#727272"/>
<rect y="180" width="10" height="10" fill="#727272"/>
<rect y="210" width="10" height="10" fill="#727272"/>
<rect y="240" width="10" height="10" fill="#727272"/>
<rect y="270" width="10" height="10" fill="#727272"/>
<rect y="300" width="10" height="10" fill="#727272"/>
<rect y="330" width="10" height="10" fill="#727272"/>
<rect y="360" width="10" height="10" fill="#727272"/>
<rect y="390" width="10" height="10" fill="#727272"/>
<rect y="420" width="10" height="10" fill="#727272"/>
<rect y="450" width="10" height="10" fill="#727272"/>
<rect y="480" width="10" height="10" fill="#727272"/>
<rect y="510" width="10" height="10" fill="#727272"/>
<rect y="540" width="10" height="10" fill="#727272"/>
<rect y="570" width="10" height="10" fill="#727272"/>
<rect y="600" width="10" height="10" fill="#727272"/>
<rect y="630" width="10" height="10" fill="#727272"/>
<rect x="30" width="10" height="10" fill="#727272"/>
<rect x="30" y="30" width="10" height="10" fill="#727272"/>
<rect x="30" y="60" width="10" height="10" fill="#727272"/>
<rect x="30" y="90" width="10" height="10" fill="#727272"/>
<rect x="30" y="120" width="10" height="10" fill="#727272"/>
<rect x="30" y="150" width="10" height="10" fill="#727272"/>
<rect x="30" y="180" width="10" height="10" fill="#727272"/>
<rect x="30" y="210" width="10" height="10" fill="#727272"/>
<rect x="30" y="240" width="10" height="10" fill="#727272"/>
<rect x="30" y="270" width="10" height="10" fill="#727272"/>
<rect x="30" y="300" width="10" height="10" fill="#727272"/>
<rect x="30" y="330" width="10" height="10" fill="#727272"/>
<rect x="30" y="360" width="10" height="10" fill="#727272"/>
<rect x="30" y="390" width="10" height="10" fill="#727272"/>
<rect x="30" y="420" width="10" height="10" fill="#727272"/>
<rect x="30" y="450" width="10" height="10" fill="#727272"/>
<rect x="30" y="480" width="10" height="10" fill="#727272"/>
<rect x="30" y="510" width="10" height="10" fill="#727272"/>
<rect x="30" y="540" width="10" height="10" fill="#727272"/>
<rect x="30" y="570" width="10" height="10" fill="#727272"/>
<rect x="30" y="600" width="10" height="10" fill="#727272"/>
<rect x="30" y="630" width="10" height="10" fill="#727272"/>
<rect x="60" width="10" height="10" fill="#727272"/>
<rect x="60" y="30" width="10" height="10" fill="#727272"/>
<rect x="60" y="60" width="10" height="10" fill="#727272"/>
<rect x="60" y="90" width="10" height="10" fill="#727272"/>
<rect x="60" y="120" width="10" height="10" fill="#727272"/>
<rect x="60" y="150" width="10" height="10" fill="#727272"/>
<rect x="60" y="180" width="10" height="10" fill="#727272"/>
<rect x="60" y="210" width="10" height="10" fill="#727272"/>
<rect x="60" y="240" width="10" height="10" fill="#727272"/>
<rect x="60" y="270" width="10" height="10" fill="#727272"/>
<rect x="60" y="300" width="10" height="10" fill="#727272"/>
<rect x="60" y="330" width="10" height="10" fill="#727272"/>
<rect x="60" y="360" width="10" height="10" fill="#727272"/>
<rect x="60" y="390" width="10" height="10" fill="#727272"/>
<rect x="60" y="420" width="10" height="10" fill="#727272"/>
<rect x="60" y="450" width="10" height="10" fill="#727272"/>
<rect x="60" y="480" width="10" height="10" fill="#727272"/>
<rect x="60" y="510" width="10" height="10" fill="#727272"/>
<rect x="60" y="540" width="10" height="10" fill="#727272"/>
<rect x="60" y="570" width="10" height="10" fill="#727272"/>
<rect x="60" y="600" width="10" height="10" fill="#727272"/>
<rect x="60" y="630" width="10" height="10" fill="#727272"/>
<rect x="90" width="10" height="10" fill="#727272"/>
<rect x="90" y="30" width="10" height="10" fill="#727272"/>
<rect x="90" y="60" width="10" height="10" fill="#727272"/>
<rect x="90" y="90" width="10" height="10" fill="#727272"/>
<rect x="90" y="120" width="10" height="10" fill="#727272"/>
<rect x="90" y="150" width="10" height="10" fill="#727272"/>
<rect x="90" y="180" width="10" height="10" fill="#727272"/>
<rect x="90" y="210" width="10" height="10" fill="#727272"/>
<rect x="90" y="240" width="10" height="10" fill="#727272"/>
<rect x="90" y="270" width="10" height="10" fill="#727272"/>
<rect x="90" y="300" width="10" height="10" fill="#727272"/>
<rect x="90" y="330" width="10" height="10" fill="#727272"/>
<rect x="90" y="360" width="10" height="10" fill="#727272"/>
<rect x="90" y="390" width="10" height="10" fill="#727272"/>
<rect x="90" y="420" width="10" height="10" fill="#727272"/>
<rect x="90" y="450" width="10" height="10" fill="#727272"/>
<rect x="90" y="480" width="10" height="10" fill="#727272"/>
<rect x="90" y="510" width="10" height="10" fill="#727272"/>
<rect x="90" y="540" width="10" height="10" fill="#727272"/>
<rect x="90" y="570" width="10" height="10" fill="#727272"/>
<rect x="90" y="600" width="10" height="10" fill="#727272"/>
<rect x="90" y="630" width="10" height="10" fill="#727272"/>
<rect x="120" width="10" height="10" fill="#727272"/>
<rect x="120" y="30" width="10" height="10" fill="#727272"/>
<rect x="120" y="60" width="10" height="10" fill="#727272"/>
<rect x="120" y="90" width="10" height="10" fill="#727272"/>
<rect x="120" y="120" width="10" height="10" fill="#727272"/>
<rect x="120" y="150" width="10" height="10" fill="#727272"/>
<rect x="120" y="180" width="10" height="10" fill="#727272"/>
<rect x="120" y="210" width="10" height="10" fill="#727272"/>
<rect x="120" y="240" width="10" height="10" fill="#727272"/>
<rect x="120" y="270" width="10" height="10" fill="#727272"/>
<rect x="120" y="300" width="10" height="10" fill="#727272"/>
<rect x="120" y="330" width="10" height="10" fill="#727272"/>
<rect x="120" y="360" width="10" height="10" fill="#727272"/>
<rect x="120" y="390" width="10" height="10" fill="#727272"/>
<rect x="120" y="420" width="10" height="10" fill="#727272"/>
<rect x="120" y="450" width="10" height="10" fill="#727272"/>
<rect x="120" y="480" width="10" height="10" fill="#727272"/>
<rect x="120" y="510" width="10" height="10" fill="#727272"/>
<rect x="120" y="540" width="10" height="10" fill="#727272"/>
<rect x="120" y="570" width="10" height="10" fill="#727272"/>
<rect x="120" y="600" width="10" height="10" fill="#727272"/>
<rect x="120" y="630" width="10" height="10" fill="#727272"/>
<rect x="150" width="10" height="10" fill="#727272"/>
<rect x="150" y="30" width="10" height="10" fill="#727272"/>
<rect x="150" y="60" width="10" height="10" fill="#727272"/>
<rect x="150" y="90" width="10" height="10" fill="#727272"/>
<rect x="150" y="120" width="10" height="10" fill="#727272"/>
<rect x="150" y="150" width="10" height="10" fill="#727272"/>
<rect x="150" y="180" width="10" height="10" fill="#727272"/>
<rect x="150" y="210" width="10" height="10" fill="#727272"/>
<rect x="150" y="240" width="10" height="10" fill="#727272"/>
<rect x="150" y="270" width="10" height="10" fill="#727272"/>
<rect x="150" y="300" width="10" height="10" fill="#727272"/>
<rect x="150" y="330" width="10" height="10" fill="#727272"/>
<rect x="150" y="360" width="10" height="10" fill="#727272"/>
<rect x="150" y="390" width="10" height="10" fill="#727272"/>
<rect x="150" y="420" width="10" height="10" fill="#727272"/>
<rect x="150" y="450" width="10" height="10" fill="#727272"/>
<rect x="150" y="480" width="10" height="10" fill="#727272"/>
<rect x="150" y="510" width="10" height="10" fill="#727272"/>
<rect x="150" y="540" width="10" height="10" fill="#727272"/>
<rect x="150" y="570" width="10" height="10" fill="#727272"/>
<rect x="150" y="600" width="10" height="10" fill="#727272"/>
<rect x="150" y="630" width="10" height="10" fill="#727272"/>
<rect x="180" width="10" height="10" fill="#727272"/>
<rect x="180" y="30" width="10" height="10" fill="#727272"/>
<rect x="180" y="60" width="10" height="10" fill="#727272"/>
<rect x="180" y="90" width="10" height="10" fill="#727272"/>
<rect x="180" y="120" width="10" height="10" fill="#727272"/>
<rect x="180" y="150" width="10" height="10" fill="#727272"/>
<rect x="180" y="180" width="10" height="10" fill="#727272"/>
<rect x="180" y="210" width="10" height="10" fill="#727272"/>
<rect x="180" y="240" width="10" height="10" fill="#727272"/>
<rect x="180" y="270" width="10" height="10" fill="#727272"/>
<rect x="180" y="300" width="10" height="10" fill="#727272"/>
<rect x="180" y="330" width="10" height="10" fill="#727272"/>
<rect x="180" y="360" width="10" height="10" fill="#727272"/>
<rect x="180" y="390" width="10" height="10" fill="#727272"/>
<rect x="180" y="420" width="10" height="10" fill="#727272"/>
<rect x="180" y="450" width="10" height="10" fill="#727272"/>
<rect x="180" y="480" width="10" height="10" fill="#727272"/>
<rect x="180" y="510" width="10" height="10" fill="#727272"/>
<rect x="180" y="540" width="10" height="10" fill="#727272"/>
<rect x="180" y="570" width="10" height="10" fill="#727272"/>
<rect x="180" y="600" width="10" height="10" fill="#727272"/>
<rect x="180" y="630" width="10" height="10" fill="#727272"/>
<rect x="210" width="10" height="10" fill="#727272"/>
<rect x="210" y="30" width="10" height="10" fill="#727272"/>
<rect x="210" y="60" width="10" height="10" fill="#727272"/>
<rect x="210" y="90" width="10" height="10" fill="#727272"/>
<rect x="210" y="120" width="10" height="10" fill="#727272"/>
<rect x="210" y="150" width="10" height="10" fill="#727272"/>
<rect x="210" y="180" width="10" height="10" fill="#727272"/>
<rect x="210" y="210" width="10" height="10" fill="#727272"/>
<rect x="210" y="240" width="10" height="10" fill="#727272"/>
<rect x="210" y="270" width="10" height="10" fill="#727272"/>
<rect x="210" y="300" width="10" height="10" fill="#727272"/>
<rect x="210" y="330" width="10" height="10" fill="#727272"/>
<rect x="210" y="360" width="10" height="10" fill="#727272"/>
<rect x="210" y="390" width="10" height="10" fill="#727272"/>
<rect x="210" y="420" width="10" height="10" fill="#727272"/>
<rect x="210" y="450" width="10" height="10" fill="#727272"/>
<rect x="210" y="480" width="10" height="10" fill="#727272"/>
<rect x="210" y="510" width="10" height="10" fill="#727272"/>
<rect x="210" y="540" width="10" height="10" fill="#727272"/>
<rect x="210" y="570" width="10" height="10" fill="#727272"/>
<rect x="210" y="600" width="10" height="10" fill="#727272"/>
<rect x="210" y="630" width="10" height="10" fill="#727272"/>
<rect x="240" width="10" height="10" fill="#727272"/>
<rect x="240" y="30" width="10" height="10" fill="#727272"/>
<rect x="240" y="60" width="10" height="10" fill="#727272"/>
<rect x="240" y="90" width="10" height="10" fill="#727272"/>
<rect x="240" y="120" width="10" height="10" fill="#727272"/>
<rect x="240" y="150" width="10" height="10" fill="#727272"/>
<rect x="240" y="180" width="10" height="10" fill="#727272"/>
<rect x="240" y="210" width="10" height="10" fill="#727272"/>
<rect x="240" y="240" width="10" height="10" fill="#727272"/>
<rect x="240" y="270" width="10" height="10" fill="#727272"/>
<rect x="240" y="300" width="10" height="10" fill="#727272"/>
<rect x="240" y="330" width="10" height="10" fill="#727272"/>
<rect x="240" y="360" width="10" height="10" fill="#727272"/>
<rect x="240" y="390" width="10" height="10" fill="#727272"/>
<rect x="240" y="420" width="10" height="10" fill="#727272"/>
<rect x="240" y="450" width="10" height="10" fill="#727272"/>
<rect x="240" y="480" width="10" height="10" fill="#727272"/>
<rect x="240" y="510" width="10" height="10" fill="#727272"/>
<rect x="240" y="540" width="10" height="10" fill="#727272"/>
<rect x="240" y="570" width="10" height="10" fill="#727272"/>
<rect x="240" y="600" width="10" height="10" fill="#727272"/>
<rect x="240" y="630" width="10" height="10" fill="#727272"/>
<rect x="270" width="10" height="10" fill="#727272"/>
<rect x="270" y="30" width="10" height="10" fill="#727272"/>
<rect x="270" y="60" width="10" height="10" fill="#727272"/>
<rect x="270" y="90" width="10" height="10" fill="#727272"/>
<rect x="270" y="120" width="10" height="10" fill="#727272"/>
<rect x="270" y="150" width="10" height="10" fill="#727272"/>
<rect x="270" y="180" width="10" height="10" fill="#727272"/>
<rect x="270" y="210" width="10" height="10" fill="#727272"/>
<rect x="270" y="240" width="10" height="10" fill="#727272"/>
<rect x="270" y="270" width="10" height="10" fill="#727272"/>
<rect x="270" y="300" width="10" height="10" fill="#727272"/>
<rect x="270" y="330" width="10" height="10" fill="#727272"/>
<rect x="270" y="360" width="10" height="10" fill="#727272"/>
<rect x="270" y="390" width="10" height="10" fill="#727272"/>
<rect x="270" y="420" width="10" height="10" fill="#727272"/>
<rect x="270" y="450" width="10" height="10" fill="#727272"/>
<rect x="270" y="480" width="10" height="10" fill="#727272"/>
<rect x="270" y="510" width="10" height="10" fill="#727272"/>
<rect x="270" y="540" width="10" height="10" fill="#727272"/>
<rect x="270" y="570" width="10" height="10" fill="#727272"/>
<rect x="270" y="600" width="10" height="10" fill="#727272"/>
<rect x="270" y="630" width="10" height="10" fill="#727272"/>
<rect x="300" width="10" height="10" fill="#727272"/>
<rect x="300" y="30" width="10" height="10" fill="#727272"/>
<rect x="300" y="60" width="10" height="10" fill="#727272"/>
<rect x="300" y="90" width="10" height="10" fill="#727272"/>
<rect x="300" y="120" width="10" height="10" fill="#727272"/>
<rect x="300" y="150" width="10" height="10" fill="#727272"/>
<rect x="300" y="180" width="10" height="10" fill="#727272"/>
<rect x="300" y="210" width="10" height="10" fill="#727272"/>
<rect x="300" y="240" width="10" height="10" fill="#727272"/>
<rect x="300" y="270" width="10" height="10" fill="#727272"/>
<rect x="300" y="300" width="10" height="10" fill="#727272"/>
<rect x="300" y="330" width="10" height="10" fill="#727272"/>
<rect x="300" y="360" width="10" height="10" fill="#727272"/>
<rect x="300" y="390" width="10" height="10" fill="#727272"/>
<rect x="300" y="420" width="10" height="10" fill="#727272"/>
<rect x="300" y="450" width="10" height="10" fill="#727272"/>
<rect x="300" y="480" width="10" height="10" fill="#727272"/>
<rect x="300" y="510" width="10" height="10" fill="#727272"/>
<rect x="300" y="540" width="10" height="10" fill="#727272"/>
<rect x="300" y="570" width="10" height="10" fill="#727272"/>
<rect x="300" y="600" width="10" height="10" fill="#727272"/>
<rect x="300" y="630" width="10" height="10" fill="#727272"/>
<rect x="330" width="10" height="10" fill="#727272"/>
<rect x="330" y="30" width="10" height="10" fill="#727272"/>
<rect x="330" y="60" width="10" height="10" fill="#727272"/>
<rect x="330" y="90" width="10" height="10" fill="#727272"/>
<rect x="330" y="120" width="10" height="10" fill="#727272"/>
<rect x="330" y="150" width="10" height="10" fill="#727272"/>
<rect x="330" y="180" width="10" height="10" fill="#727272"/>
<rect x="330" y="210" width="10" height="10" fill="#727272"/>
<rect x="330" y="240" width="10" height="10" fill="#727272"/>
<rect x="330" y="270" width="10" height="10" fill="#727272"/>
<rect x="330" y="300" width="10" height="10" fill="#727272"/>
<rect x="330" y="330" width="10" height="10" fill="#727272"/>
<rect x="330" y="360" width="10" height="10" fill="#727272"/>
<rect x="330" y="390" width="10" height="10" fill="#727272"/>
<rect x="330" y="420" width="10" height="10" fill="#727272"/>
<rect x="330" y="450" width="10" height="10" fill="#727272"/>
<rect x="330" y="480" width="10" height="10" fill="#727272"/>
<rect x="330" y="510" width="10" height="10" fill="#727272"/>
<rect x="330" y="540" width="10" height="10" fill="#727272"/>
<rect x="330" y="570" width="10" height="10" fill="#727272"/>
<rect x="330" y="600" width="10" height="10" fill="#727272"/>
<rect x="330" y="630" width="10" height="10" fill="#727272"/>
<rect x="360" width="10" height="10" fill="#727272"/>
<rect x="360" y="30" width="10" height="10" fill="#727272"/>
<rect x="360" y="60" width="10" height="10" fill="#727272"/>
<rect x="360" y="90" width="10" height="10" fill="#727272"/>
<rect x="360" y="120" width="10" height="10" fill="#727272"/>
<rect x="360" y="150" width="10" height="10" fill="#727272"/>
<rect x="360" y="180" width="10" height="10" fill="#727272"/>
<rect x="360" y="210" width="10" height="10" fill="#727272"/>
<rect x="360" y="240" width="10" height="10" fill="#727272"/>
<rect x="360" y="270" width="10" height="10" fill="#727272"/>
<rect x="360" y="300" width="10" height="10" fill="#727272"/>
<rect x="360" y="330" width="10" height="10" fill="#727272"/>
<rect x="360" y="360" width="10" height="10" fill="#727272"/>
<rect x="360" y="390" width="10" height="10" fill="#727272"/>
<rect x="360" y="420" width="10" height="10" fill="#727272"/>
<rect x="360" y="450" width="10" height="10" fill="#727272"/>
<rect x="360" y="480" width="10" height="10" fill="#727272"/>
<rect x="360" y="510" width="10" height="10" fill="#727272"/>
<rect x="360" y="540" width="10" height="10" fill="#727272"/>
<rect x="360" y="570" width="10" height="10" fill="#727272"/>
<rect x="360" y="600" width="10" height="10" fill="#727272"/>
<rect x="360" y="630" width="10" height="10" fill="#727272"/>
</svg>
