<svg width="1471" height="850" viewBox="0 0 1471 850" fill="none" xmlns="http://www.w3.org/2000/svg">
<g opacity="0.1">
<path d="M1118.23 288.812L1116.35 287.656C1051.18 248.158 980.234 219.083 906.079 201.484L910.898 181.592L928.249 109.051L954.033 0H516.714L542.739 109.051L560.041 181.592L564.86 201.484C490.744 219.111 419.832 248.184 354.683 287.656L352.755 288.86C318.35 309.782 285.725 333.497 255.209 359.763L505.822 610.234C547.643 578.898 595.461 556.486 646.309 544.389L710.89 815.235L720.24 854.395L735.084 916.531L749.928 854.25L759.181 815.475L823.907 544.341C874.791 556.471 922.64 578.915 964.491 610.282L1040.74 534.033L1117.85 456.965L1215.25 359.667C1184.9 333.446 1152.45 309.749 1118.23 288.812V288.812Z" fill="url(#paint0_linear_1_1045)"/>
<path d="M1118.23 288.812L1116.35 287.656C1051.18 248.158 980.234 219.083 906.079 201.484L910.898 181.592L928.249 109.051L954.033 0H516.714L542.739 109.051L560.041 181.592L564.86 201.484C490.744 219.111 419.832 248.184 354.683 287.656L352.755 288.86C318.35 309.782 285.725 333.497 255.209 359.763L505.822 610.234C547.643 578.898 595.461 556.486 646.309 544.389L710.89 815.235L720.24 854.395L735.084 916.531L749.928 854.25L759.181 815.475L823.907 544.341C874.791 556.471 922.64 578.915 964.491 610.282L1040.74 534.033L1117.85 456.965L1215.25 359.667C1184.9 333.446 1152.45 309.749 1118.23 288.812V288.812Z" fill="url(#paint1_linear_1_1045)"/>
<path d="M1364.97 536.153L1363.86 534.226C1342.86 499.925 1319.1 467.385 1292.82 436.928L1195.42 534.226L1118.31 611.294L1042.07 687.495C1051.97 700.721 1061 714.574 1069.1 728.967L974.69 789.032C969.241 784.879 962.547 782.69 955.696 782.821C948.845 782.952 942.239 785.396 936.954 789.754L936.038 790.429C935.647 790.3 935.275 790.122 934.93 789.899L811.744 722.465L806.539 744.381L814.057 748.475C851.039 768.705 887.988 788.855 924.905 808.925L925.628 809.359C925.6 809.55 925.6 809.745 925.628 809.937C925.204 813.134 925.204 816.373 925.628 819.57C925.628 819.57 925.628 819.907 925.628 820.1L908.904 830.793L904.085 833.876L746.247 934.305L735.692 941L724.27 933.727L544.89 820.148C544.89 819.666 544.89 819.233 544.89 818.751C544.89 815.62 544.89 812.634 544.89 809.551H545.275L581.421 789.851C598.578 780.571 615.704 771.242 632.797 761.865L664.268 744.718L659.015 722.754L534.769 790.766C530.328 786.586 524.703 783.879 518.664 783.017C512.625 782.154 506.467 783.179 501.032 785.949C499.246 786.813 497.537 787.829 495.924 788.984L401.607 729.304C409.799 714.76 418.927 700.762 428.933 687.398L178.32 436.928C152.03 467.373 128.271 499.914 107.281 534.226L106.125 536.153C36.6972 651.004 0 782.636 0 916.82C0 1051 36.6972 1182.64 106.125 1297.49L107.281 1299.32C128.197 1333.65 151.892 1366.2 178.128 1396.66C189.983 1410.44 202.354 1423.77 215.238 1436.64C228.122 1449.52 241.472 1461.92 255.287 1473.83C285.726 1500.1 318.27 1523.83 352.593 1544.78C353.262 1545.12 353.906 1545.5 354.52 1545.94C419.634 1585.44 490.536 1614.52 564.649 1632.11C676.89 1658.63 793.772 1658.63 906.013 1632.11C980.172 1614.52 1051.12 1585.45 1116.29 1545.94L1118.17 1544.78C1152.51 1523.82 1185.09 1500.09 1215.57 1473.83C1229.35 1461.95 1242.69 1449.55 1255.57 1436.64C1268.49 1423.78 1280.82 1410.44 1292.78 1396.66C1319.02 1366.18 1342.74 1333.63 1363.72 1299.32C1364.1 1298.74 1364.44 1298.11 1364.83 1297.49C1434.28 1182.65 1471 1051.01 1471 916.82C1471 782.629 1434.28 650.993 1364.83 536.153H1364.97ZM352.882 916.772C352.736 858.624 365.925 801.216 391.438 748.957L484.212 807.721C483.789 809.975 483.612 812.268 483.682 814.561C483.568 820.63 485.369 826.581 488.829 831.569C492.289 836.558 497.233 840.331 502.96 842.353C503.24 842.43 503.502 842.561 503.731 842.739C503.731 842.739 503.731 843.269 503.731 843.75C503.731 902.771 503.731 961.744 503.731 1020.67V1065.9C498.13 1067.8 493.228 1071.34 489.655 1076.05C486.082 1080.76 484.002 1086.44 483.682 1092.34C483.462 1095.14 483.559 1097.95 483.971 1100.72L423.921 1139.02C377.472 1074.22 352.556 996.481 352.689 916.772H352.882ZM724.608 1299.17C626.935 1296.49 534.019 1256.44 465.031 1187.28C455.251 1177.57 446.031 1167.31 437.415 1156.55L495.972 1119.36C496.936 1119.99 497.9 1120.62 498.912 1121.19C504.404 1124.63 510.86 1126.21 517.319 1125.69C523.779 1125.17 529.898 1122.58 534.769 1118.3L704.944 1211.12V1211.99C704.611 1215.38 704.708 1218.79 705.233 1222.15C706.289 1227.17 708.616 1231.84 711.991 1235.7C715.366 1239.56 719.677 1242.49 724.511 1244.21L724.608 1299.17ZM525.66 1065.85V842.691C528.505 842.006 531.117 840.576 533.226 838.548L719.354 956.51C721.367 957.451 723.048 958.979 724.174 960.894C724.763 962.427 725.01 964.071 724.897 965.71V1186.37C721.556 1187.7 718.436 1189.54 715.643 1191.81L545.13 1099.04V1098.07C545.174 1091.75 543.346 1085.55 539.877 1080.25L537.949 1077.36C534.809 1072.55 530.519 1068.59 525.467 1065.85H525.66ZM928.231 1085.12C926.777 1087.35 926.006 1089.96 926.013 1092.63C926.013 1094.75 926.013 1096.87 926.013 1099.04C926.013 1099.04 925.724 1099.04 925.58 1099.04C904.856 1110.5 884.116 1121.87 863.36 1133.14L816.66 1158.57L756.32 1191.52C756.32 1191.52 756.079 1191.52 755.934 1191.52L754.296 1190.6C751.5 1189.16 748.994 1187.76 746.681 1186.27V1178.27C746.681 1174.32 746.681 1170.42 746.681 1166.42V960.267L756.609 953.957L937.966 838.355C939.726 840.038 941.935 841.175 944.328 841.631H945.484C945.623 843.008 945.623 844.396 945.484 845.773V845.773C945.484 904.056 945.484 962.354 945.484 1020.67V1065.03L939.99 1068.02C938.482 1068.84 937.206 1070.04 936.279 1071.49C934.081 1073.07 932.22 1075.07 930.805 1077.38C929.39 1079.68 928.45 1082.25 928.038 1084.92L928.231 1085.12ZM1006.35 1187.47C993.454 1200.4 979.652 1212.39 965.051 1223.36C901.87 1270.71 825.528 1297.27 746.585 1299.37V1244.12C751.347 1242.37 755.582 1239.44 758.889 1235.59C762.196 1231.75 764.464 1227.12 765.477 1222.15C766.025 1218.76 766.17 1215.32 765.911 1211.89C765.936 1211.62 765.936 1211.35 765.911 1211.08C822.427 1180.18 879.168 1149.23 936.134 1118.21C942.368 1123.47 950.402 1126.11 958.545 1125.58C964.392 1125.19 970.002 1123.12 974.69 1119.61L1033.54 1157.13C1024.98 1167.68 1015.84 1177.75 1006.16 1187.28L1006.35 1187.47ZM1046.89 1139.79L986.643 1101.25C986.643 1100.92 986.932 1100.58 987.028 1100.24L987.606 1098.51V1090.85L987.173 1089.79C986.739 1088.73 986.353 1087.62 985.919 1086.51C984.979 1083.77 983.835 1081.1 982.498 1078.52C979.025 1072.6 973.558 1068.11 967.075 1065.85V1019.75C967.075 961.086 967.075 902.418 967.075 843.75C967.075 843.269 967.075 842.931 967.075 842.739L967.75 842.45C972.43 840.755 976.601 837.898 979.873 834.148C983.144 830.399 985.407 825.88 986.45 821.015C986.563 820.543 986.741 820.089 986.98 819.666L987.655 817.547V810.033L986.932 807.914V807.528L1079.37 748.571C1109.73 810.628 1122.73 879.738 1116.98 948.578C1111.24 1017.42 1086.97 1083.42 1046.74 1139.59L1046.89 1139.79ZM746.343 745.392L745.862 747.415H746.343V745.392ZM724.415 744.862V747.415H725.041L724.415 744.862Z" fill="url(#paint2_linear_1_1045)"/>
</g>
<defs>
<linearGradient id="paint0_linear_1_1045" x1="255.354" y1="458.362" x2="1215.63" y2="458.362" gradientUnits="userSpaceOnUse">
<stop stop-color="#7D0BFE"/>
<stop offset="1" stop-color="#B072D2"/>
</linearGradient>
<linearGradient id="paint1_linear_1_1045" x1="255.354" y1="458.362" x2="1215.63" y2="458.362" gradientUnits="userSpaceOnUse">
<stop stop-color="#7D0BFE"/>
<stop offset="1" stop-color="#B072D2"/>
</linearGradient>
<linearGradient id="paint2_linear_1_1045" x1="407496" y1="882179" x2="856549" y2="882179" gradientUnits="userSpaceOnUse">
<stop stop-color="#7D0BFE"/>
<stop offset="1" stop-color="#B072D2"/>
</linearGradient>
</defs>
</svg>
